<svg xmlns="http://www.w3.org/2000/svg" viewBox="0 0 1200 520" role="img" aria-label="Aerial map">
  <defs>
    <linearGradient id="fieldA" x1="0" y1="0" x2="1" y2="1">
      <stop offset="0" stop-color="#6f8f54"/>
      <stop offset="1" stop-color="#476b3a"/>
    </linearGradient>
    <linearGradient id="fieldB" x1="0" y1="1" x2="1" y2="0">
      <stop offset="0" stop-color="#b5aa6a"/>
      <stop offset="1" stop-color="#7b8f56"/>
    </linearGradient>
    <filter id="softNoise">
      <feTurbulence type="fractalNoise" baseFrequency="0.018" numOctaves="3" seed="7"/>
      <feColorMatrix type="saturate" values="0.25"/>
      <feBlend mode="multiply" in2="SourceGraphic"/>
    </filter>
  </defs>
  <rect width="1200" height="520" fill="#526f43"/>
  <g filter="url(#softNoise)" opacity="0.88">
    <path d="M0 0h370l-58 210L0 185Z" fill="url(#fieldA)"/>
    <path d="M365 0h300l-40 196-314 18Z" fill="#8f9d5e"/>
    <path d="M650 0h550v150l-224 56-350-12Z" fill="url(#fieldB)"/>
    <path d="M0 183l312 30-50 307H0Z" fill="#3f6738"/>
    <path d="M312 215l316-18 92 323H263Z" fill="#7f8f50"/>
    <path d="M627 198l350 9 223-57v370H720Z" fill="#496f43"/>
  </g>
  <path d="M-20 378C158 342 292 368 430 328c164-47 264-108 420-80 141 26 240 6 371-50" fill="none" stroke="#8b7f65" stroke-width="36" stroke-linecap="round" opacity="0.78"/>
  <path d="M-20 378C158 342 292 368 430 328c164-47 264-108 420-80 141 26 240 6 371-50" fill="none" stroke="#d6cfb5" stroke-width="12" stroke-linecap="round" opacity="0.84"/>
  <path d="M182 -20c44 120 70 205 130 286 49 67 127 118 180 274" fill="none" stroke="#88755d" stroke-width="24" stroke-linecap="round" opacity="0.65"/>
  <path d="M182 -20c44 120 70 205 130 286 49 67 127 118 180 274" fill="none" stroke="#d5d0bd" stroke-width="8" stroke-linecap="round" opacity="0.78"/>
  <path d="M898 -20c-60 104-67 205-28 303 29 72 84 136 96 257" fill="none" stroke="#456c84" stroke-width="42" stroke-linecap="round" opacity="0.8"/>
  <path d="M898 -20c-60 104-67 205-28 303 29 72 84 136 96 257" fill="none" stroke="#6fa0b7" stroke-width="25" stroke-linecap="round" opacity="0.72"/>
  <g opacity="0.92">
    <rect x="504" y="258" width="34" height="18" transform="rotate(-14 521 267)" fill="#d8d0bf"/>
    <rect x="545" y="250" width="28" height="20" transform="rotate(-14 559 260)" fill="#bfc6bb"/>
    <rect x="584" y="243" width="42" height="22" transform="rotate(-14 605 254)" fill="#d2b79a"/>
    <rect x="643" y="235" width="25" height="18" transform="rotate(-14 655 244)" fill="#e2dac9"/>
    <rect x="703" y="226" width="44" height="24" transform="rotate(-14 725 238)" fill="#bfc6bb"/>
    <rect x="762" y="217" width="32" height="21" transform="rotate(-14 778 227)" fill="#d8d0bf"/>
    <rect x="248" y="318" width="58" height="30" transform="rotate(10 277 333)" fill="#d2b79a"/>
    <rect x="323" y="334" width="37" height="24" transform="rotate(10 341 346)" fill="#e2dac9"/>
    <rect x="1000" y="150" width="50" height="28" transform="rotate(-15 1025 164)" fill="#d8d0bf"/>
    <rect x="1065" y="135" width="37" height="24" transform="rotate(-15 1083 147)" fill="#bfc6bb"/>
  </g>
  <g opacity="0.24" stroke="#f8fafc" stroke-width="2">
    <path d="M0 185 1200 150"/>
    <path d="M312 215 370 0"/>
    <path d="M628 197 665 0"/>
    <path d="M720 520 627 198"/>
    <path d="M263 520 312 215"/>
  </g>
  <rect width="1200" height="520" fill="none" stroke="#ffffff" stroke-opacity="0.35" stroke-width="10"/>
</svg>
